<mxfile host="app.diagrams.net" modified="2023-11-30T09:37:42.072Z" agent="Mozilla/5.0 (Windows NT 10.0; Win64; x64; rv:120.0) Gecko/20100101 Firefox/120.0" etag="NMNhcera65bk6RKh8MXo" version="22.1.5" type="github">
  <diagram name="Page-1" id="e7e014a7-5840-1c2e-5031-d8a46d1fe8dd">
    <mxGraphModel dx="1430" dy="794" grid="1" gridSize="10" guides="1" tooltips="1" connect="1" arrows="1" fold="1" page="1" pageScale="1" pageWidth="1169" pageHeight="826" background="none" math="0" shadow="0">
      <root>
        <mxCell id="0" />
        <mxCell id="1" parent="0" />
        <mxCell id="2" value="User" style="swimlane;whiteSpace=wrap" parent="1" vertex="1">
          <mxGeometry x="164.5" y="128" width="280" height="662" as="geometry" />
        </mxCell>
        <mxCell id="5" value="" style="ellipse;shape=startState;fillColor=#000000;strokeColor=#000000;" parent="2" vertex="1">
          <mxGeometry x="125" y="62" width="30" height="30" as="geometry" />
        </mxCell>
        <mxCell id="6" value="" style="edgeStyle=elbowEdgeStyle;elbow=horizontal;verticalAlign=bottom;endArrow=open;endSize=8;strokeColor=#000000;endFill=1;rounded=0" parent="2" source="5" target="7" edge="1">
          <mxGeometry x="100" y="40" as="geometry">
            <mxPoint x="115" y="110" as="targetPoint" />
          </mxGeometry>
        </mxCell>
        <mxCell id="7" value="Chọn chức năng đăng nhập" style="strokeColor=#000000;rounded=1;" parent="2" vertex="1">
          <mxGeometry x="60" y="110" width="180" height="50" as="geometry" />
        </mxCell>
        <mxCell id="8" value="Nhập chọn tài khoản google để đăng nhập" style="strokeColor=#000000;whiteSpace=wrap;" parent="2" vertex="1">
          <mxGeometry x="95" y="232" width="110" height="50" as="geometry" />
        </mxCell>
        <mxCell id="uJzl-iCiUG7cRtJ83A74-43" value="Bắt đầu" style="text;html=1;align=center;verticalAlign=middle;resizable=0;points=[];autosize=1;strokeColor=none;fillColor=none;" vertex="1" parent="2">
          <mxGeometry x="105" y="40" width="70" height="30" as="geometry" />
        </mxCell>
        <mxCell id="uJzl-iCiUG7cRtJ83A74-48" value="Chọn đăng nhập" style="rounded=0;whiteSpace=wrap;html=1;" vertex="1" parent="2">
          <mxGeometry x="95.5" y="342" width="120" height="60" as="geometry" />
        </mxCell>
        <mxCell id="uJzl-iCiUG7cRtJ83A74-50" value="" style="endArrow=classic;html=1;rounded=0;entryX=0;entryY=0.5;entryDx=0;entryDy=0;" edge="1" parent="2" target="uJzl-iCiUG7cRtJ83A74-47">
          <mxGeometry width="50" height="50" relative="1" as="geometry">
            <mxPoint x="215.5" y="382" as="sourcePoint" />
            <mxPoint x="265.5" y="332" as="targetPoint" />
          </mxGeometry>
        </mxCell>
        <mxCell id="uJzl-iCiUG7cRtJ83A74-59" value="" style="ellipse;shape=startState;fillColor=#000000;strokeColor=#000000;" vertex="1" parent="2">
          <mxGeometry x="115.5" y="572" width="30" height="30" as="geometry" />
        </mxCell>
        <mxCell id="uJzl-iCiUG7cRtJ83A74-61" value="Kết thúc" style="text;html=1;align=center;verticalAlign=middle;resizable=0;points=[];autosize=1;strokeColor=none;fillColor=none;" vertex="1" parent="2">
          <mxGeometry x="95.5" y="602" width="70" height="30" as="geometry" />
        </mxCell>
        <mxCell id="9" value="" style="endArrow=open;strokeColor=#000000;endFill=1;rounded=0;edgeStyle=orthogonalEdgeStyle;exitX=0.045;exitY=0.986;exitDx=0;exitDy=0;exitPerimeter=0;" parent="2" source="15" edge="1">
          <mxGeometry relative="1" as="geometry">
            <mxPoint x="373.02" y="141.99551724137928" as="sourcePoint" />
            <mxPoint x="175.00275862068975" y="239.02999999999997" as="targetPoint" />
          </mxGeometry>
        </mxCell>
        <mxCell id="3" value="Hệ thống" style="swimlane;whiteSpace=wrap" parent="1" vertex="1">
          <mxGeometry x="445" y="128" width="445" height="662" as="geometry" />
        </mxCell>
        <mxCell id="15" value="Hiển thị form đăng nhập" style="strokeColor=#000000;rounded=1;glass=0;shadow=0;whiteSpace=wrap;" parent="3" vertex="1">
          <mxGeometry x="67.5" y="100" width="144.5" height="70" as="geometry" />
        </mxCell>
        <mxCell id="26" value="" style="edgeStyle=elbowEdgeStyle;elbow=horizontal;verticalAlign=bottom;endArrow=open;endSize=8;strokeColor=#000000;endFill=1;rounded=0" parent="3" target="15" edge="1">
          <mxGeometry x="130" y="90" as="geometry">
            <mxPoint x="230" y="140" as="targetPoint" />
            <mxPoint x="162.50000000000023" y="135" as="sourcePoint" />
          </mxGeometry>
        </mxCell>
        <mxCell id="uJzl-iCiUG7cRtJ83A74-44" value="Kiểm tra định dạng" style="rhombus;whiteSpace=wrap;html=1;" vertex="1" parent="3">
          <mxGeometry x="82" y="220" width="130" height="80" as="geometry" />
        </mxCell>
        <mxCell id="uJzl-iCiUG7cRtJ83A74-42" value="thông báo định dạng thông tin đăng nhập không đúng" style="strokeColor=#000000;whiteSpace=wrap;" vertex="1" parent="3">
          <mxGeometry x="305" y="250" width="110" height="60" as="geometry" />
        </mxCell>
        <mxCell id="20" value="" style="endArrow=open;strokeColor=#000000;endFill=1;rounded=0;entryX=0;entryY=0.5;entryDx=0;entryDy=0;exitX=1;exitY=0.5;exitDx=0;exitDy=0;edgeStyle=orthogonalEdgeStyle;" parent="3" source="uJzl-iCiUG7cRtJ83A74-44" target="uJzl-iCiUG7cRtJ83A74-42" edge="1">
          <mxGeometry relative="1" as="geometry">
            <mxPoint x="113.31295002117758" y="372" as="sourcePoint" />
            <mxPoint x="95" y="421.83359746434235" as="targetPoint" />
          </mxGeometry>
        </mxCell>
        <mxCell id="uJzl-iCiUG7cRtJ83A74-45" value="sai" style="edgeLabel;html=1;align=center;verticalAlign=middle;resizable=0;points=[];" vertex="1" connectable="0" parent="20">
          <mxGeometry x="-0.0851" y="5" relative="1" as="geometry">
            <mxPoint as="offset" />
          </mxGeometry>
        </mxCell>
        <mxCell id="uJzl-iCiUG7cRtJ83A74-46" value="" style="endArrow=open;strokeColor=#000000;endFill=1;rounded=0;entryX=1;entryY=0.5;entryDx=0;entryDy=0;exitX=0.5;exitY=0;exitDx=0;exitDy=0;edgeStyle=orthogonalEdgeStyle;" edge="1" parent="3" source="uJzl-iCiUG7cRtJ83A74-42" target="15">
          <mxGeometry relative="1" as="geometry">
            <mxPoint x="325" y="260" as="sourcePoint" />
            <mxPoint x="522" y="288" as="targetPoint" />
          </mxGeometry>
        </mxCell>
        <mxCell id="uJzl-iCiUG7cRtJ83A74-56" style="rounded=0;orthogonalLoop=1;jettySize=auto;html=1;entryX=0.5;entryY=0;entryDx=0;entryDy=0;" edge="1" parent="3" source="uJzl-iCiUG7cRtJ83A74-47" target="uJzl-iCiUG7cRtJ83A74-55">
          <mxGeometry relative="1" as="geometry" />
        </mxCell>
        <mxCell id="uJzl-iCiUG7cRtJ83A74-47" value="Xác thực google" style="rhombus;whiteSpace=wrap;html=1;" vertex="1" parent="3">
          <mxGeometry x="97.5" y="342" width="114.5" height="80" as="geometry" />
        </mxCell>
        <mxCell id="uJzl-iCiUG7cRtJ83A74-53" value="sai" style="edgeLabel;html=1;align=center;verticalAlign=middle;resizable=0;points=[];" vertex="1" connectable="0" parent="3">
          <mxGeometry x="222.498368268534" y="321.99662586830345" as="geometry">
            <mxPoint x="61" y="62" as="offset" />
          </mxGeometry>
        </mxCell>
        <mxCell id="uJzl-iCiUG7cRtJ83A74-54" value="" style="endArrow=classic;html=1;rounded=0;exitX=1;exitY=0.5;exitDx=0;exitDy=0;entryX=0;entryY=1;entryDx=0;entryDy=0;edgeStyle=orthogonalEdgeStyle;" edge="1" parent="3" source="uJzl-iCiUG7cRtJ83A74-47" target="uJzl-iCiUG7cRtJ83A74-42">
          <mxGeometry width="50" height="50" relative="1" as="geometry">
            <mxPoint x="195" y="322" as="sourcePoint" />
            <mxPoint x="245" y="272" as="targetPoint" />
          </mxGeometry>
        </mxCell>
        <mxCell id="uJzl-iCiUG7cRtJ83A74-58" style="rounded=0;orthogonalLoop=1;jettySize=auto;html=1;entryX=0.5;entryY=0;entryDx=0;entryDy=0;" edge="1" parent="3" source="uJzl-iCiUG7cRtJ83A74-55" target="uJzl-iCiUG7cRtJ83A74-57">
          <mxGeometry relative="1" as="geometry" />
        </mxCell>
        <mxCell id="uJzl-iCiUG7cRtJ83A74-55" value="Thông báo đăng nhập thành công" style="rounded=0;whiteSpace=wrap;html=1;" vertex="1" parent="3">
          <mxGeometry x="97.5" y="462" width="120" height="60" as="geometry" />
        </mxCell>
        <mxCell id="uJzl-iCiUG7cRtJ83A74-57" value="Di chuyển đến màn hình home" style="rounded=1;whiteSpace=wrap;html=1;" vertex="1" parent="3">
          <mxGeometry x="94.75" y="562" width="120" height="60" as="geometry" />
        </mxCell>
        <mxCell id="14" value="" style="edgeStyle=elbowEdgeStyle;elbow=horizontal;verticalAlign=bottom;endArrow=open;endSize=8;strokeColor=#000000;endFill=1;rounded=0;exitX=1;exitY=0.5;exitDx=0;exitDy=0;" parent="1" source="7" target="15" edge="1">
          <mxGeometry x="484.5" y="148" as="geometry">
            <mxPoint x="499.5" y="218" as="targetPoint" />
            <mxPoint x="527.2413793103449" y="195.84799775736917" as="sourcePoint" />
          </mxGeometry>
        </mxCell>
        <mxCell id="11" value="" style="endArrow=open;strokeColor=#000000;endFill=1;rounded=0;entryX=0.017;entryY=0.45;entryDx=0;entryDy=0;entryPerimeter=0;" parent="1" source="8" target="uJzl-iCiUG7cRtJ83A74-44" edge="1">
          <mxGeometry relative="1" as="geometry">
            <mxPoint x="512.5" y="454.4128440366974" as="targetPoint" />
          </mxGeometry>
        </mxCell>
        <mxCell id="uJzl-iCiUG7cRtJ83A74-49" value="" style="endArrow=classic;html=1;rounded=0;entryX=1;entryY=0;entryDx=0;entryDy=0;exitX=0;exitY=1;exitDx=0;exitDy=0;edgeStyle=orthogonalEdgeStyle;" edge="1" parent="1" source="uJzl-iCiUG7cRtJ83A74-44" target="uJzl-iCiUG7cRtJ83A74-48">
          <mxGeometry width="50" height="50" relative="1" as="geometry">
            <mxPoint x="640" y="450" as="sourcePoint" />
            <mxPoint x="690" y="400" as="targetPoint" />
            <Array as="points">
              <mxPoint x="480" y="408" />
              <mxPoint x="480" y="470" />
            </Array>
          </mxGeometry>
        </mxCell>
        <mxCell id="uJzl-iCiUG7cRtJ83A74-60" style="rounded=0;orthogonalLoop=1;jettySize=auto;html=1;entryX=1;entryY=0.5;entryDx=0;entryDy=0;" edge="1" parent="1" source="uJzl-iCiUG7cRtJ83A74-57" target="uJzl-iCiUG7cRtJ83A74-59">
          <mxGeometry relative="1" as="geometry">
            <mxPoint x="611" y="660" as="sourcePoint" />
            <mxPoint x="610" y="700" as="targetPoint" />
          </mxGeometry>
        </mxCell>
      </root>
    </mxGraphModel>
  </diagram>
</mxfile>
